<svg id="Icons" height="512" viewBox="0 0 74 74" width="512" xmlns="http://www.w3.org/2000/svg"><path d="m69 72h-64a3 3 0 0 1 -3-3v-46a1 1 0 0 1 1-1h68a1 1 0 0 1 1 1v46a3 3 0 0 1 -3 3zm-65-48v45a1 1 0 0 0 1 1h64a1 1 0 0 0 1-1v-45z"/><path d="m71 24h-68a1 1 0 0 1 -1-1v-11a3 3 0 0 1 3-3h10a1 1 0 0 1 0 2h-10a1 1 0 0 0 -1 1v10h66v-10a1 1 0 0 0 -1-1h-10a1 1 0 0 1 0-2h10a3 3 0 0 1 3 3v11a1 1 0 0 1 -1 1z"/><path d="m52 11h-30a1 1 0 0 1 0-2h30a1 1 0 0 1 0 2z"/><path d="m55.5 18a4.5 4.5 0 0 1 -4.5-4.5v-7a4.5 4.5 0 0 1 9 0v7a4.5 4.5 0 0 1 -4.5 4.5zm0-14a2.5 2.5 0 0 0 -2.5 2.5v7a2.5 2.5 0 0 0 5 0v-7a2.5 2.5 0 0 0 -2.5-2.5z"/><path d="m18.5 18a4.5 4.5 0 0 1 -4.5-4.5v-7a4.5 4.5 0 0 1 9 0v7a4.5 4.5 0 0 1 -4.5 4.5zm0-14a2.5 2.5 0 0 0 -2.5 2.5v7a2.5 2.5 0 0 0 5 0v-7a2.5 2.5 0 0 0 -2.5-2.5z"/><path d="m33.5 39.375h-8a1 1 0 0 1 -1-1v-8a1 1 0 0 1 1-1h8a1 1 0 0 1 1 1v8a1 1 0 0 1 -1 1zm-7-2h6v-6h-6z"/><path d="m48.5 39.375h-8a1 1 0 0 1 -1-1v-8a1 1 0 0 1 1-1h8a1 1 0 0 1 1 1v8a1 1 0 0 1 -1 1zm-7-2h6v-6h-6z"/><path d="m63.5 39.375h-8a1 1 0 0 1 -1-1v-8a1 1 0 0 1 1-1h8a1 1 0 0 1 1 1v8a1 1 0 0 1 -1 1zm-7-2h6v-6h-6z"/><path d="m18.5 52h-8a1 1 0 0 1 -1-1v-8a1 1 0 0 1 1-1h8a1 1 0 0 1 1 1v8a1 1 0 0 1 -1 1zm-7-2h6v-6h-6z"/><path d="m33.5 52h-8a1 1 0 0 1 -1-1v-8a1 1 0 0 1 1-1h8a1 1 0 0 1 1 1v8a1 1 0 0 1 -1 1zm-7-2h6v-6h-6z"/><path d="m63.5 52h-8a1 1 0 0 1 -1-1v-8a1 1 0 0 1 1-1h8a1 1 0 0 1 1 1v8a1 1 0 0 1 -1 1zm-7-2h6v-6h-6z"/><path d="m18.5 64.625h-8a1 1 0 0 1 -1-1v-8a1 1 0 0 1 1-1h8a1 1 0 0 1 1 1v8a1 1 0 0 1 -1 1zm-7-2h6v-6h-6z"/><path d="m33.5 64.625h-8a1 1 0 0 1 -1-1v-8a1 1 0 0 1 1-1h8a1 1 0 0 1 1 1v8a1 1 0 0 1 -1 1zm-7-2h6v-6h-6z"/><path d="m48.5 64.625h-8a1 1 0 0 1 -1-1v-8a1 1 0 0 1 1-1h8a1 1 0 0 1 1 1v8a1 1 0 0 1 -1 1zm-7-2h6v-6h-6z"/><path d="m44.495 52a1 1 0 0 1 -.625-.22c-.444-.355-4.337-3.552-4.37-6.318a3.515 3.515 0 0 1 1-2.5 3.233 3.233 0 0 1 4-.447 3.315 3.315 0 0 1 4.176.591 3.134 3.134 0 0 1 .813 2.445c-.3 2.943-3.954 5.9-4.369 6.232a1 1 0 0 1 -.625.217zm-1.722-8a1.2 1.2 0 0 0 -.854.37 1.5 1.5 0 0 0 -.419 1.068c.013 1.132 1.6 2.991 2.995 4.248 1.128-1.021 2.848-2.865 3-4.339a1.17 1.17 0 0 0 -.308-.9 1.254 1.254 0 0 0 -1.91.031 1 1 0 0 1 -.781.376 1 1 0 0 1 -.781-.376 1.2 1.2 0 0 0 -.942-.478z"/></svg>