<svg xmlns="http://www.w3.org/2000/svg" viewBox="0 0 1109 510"><defs><style>.cls-1{fill:#b780de;}.cls-2{font-size:35px;}.cls-13,.cls-2,.cls-8{fill:#fff;font-family:MyriadPro-Regular, Myriad Pro;}.cls-10,.cls-11,.cls-13,.cls-2,.cls-8,.cls-9{stroke:#fff;stroke-miterlimit:10;}.cls-2,.cls-8{stroke-width:0.75px;}.cls-3{letter-spacing:-0.01em;}.cls-4{letter-spacing:0em;}.cls-5{fill:#ea001b;}.cls-6{fill:#f79f1a;}.cls-7,.cls-9{fill:#f87f76;}.cls-13,.cls-8{font-size:56px;}.cls-10,.cls-11{fill:none;}.cls-11,.cls-13{stroke-width:2px;}.cls-12{letter-spacing:0em;}.cls-14{letter-spacing:-0.01em;}.cls-15{letter-spacing:-0.01em;}.cls-16{letter-spacing:0em;}</style></defs><title>card</title><g id="Capa_2" data-name="Capa 2"><rect class="cls-1" x="257" width="852" height="510" rx="86.54"/><text class="cls-2" transform="translate(863.02 450.33)"><tspan class="cls-3">M</tspan><tspan x="27.79" y="0">ASTER </tspan><tspan class="cls-4" x="127.33" y="0">C</tspan><tspan x="147.77" y="0">ARD</tspan></text><circle class="cls-5" cx="923.5" cy="313.5" r="60.5"/><circle class="cls-6" cx="1001.5" cy="319.5" r="60.5"/></g><g id="Capa_1" data-name="Capa 1"><rect class="cls-7" width="852" height="510" rx="86.54"/><text class="cls-8" transform="translate(41.31 211.03)">4568 4525 5246 1235</text><rect class="cls-9" x="64.5" y="45.5" width="108" height="74" rx="25.16"/><rect class="cls-10" x="99.5" y="72.5" width="34" height="22" rx="5.37"/><polyline class="cls-11" points="124 72 124 58 151 58"/><polyline class="cls-11" points="135 82 151 82 151 91 165 91"/><polyline class="cls-11" points="121 99 121 110 146 111"/><polyline class="cls-11" points="108 99 108 111 88 111"/><polyline class="cls-11" points="97 82 75 82 75 94"/><polyline class="cls-11" points="111 69 111 53 86 53"/><text class="cls-2" transform="translate(53.29 408.44)">DEBIT <tspan class="cls-12" x="92.68" y="0">C</tspan><tspan x="113.12" y="0">ARD</tspan></text><text class="cls-13" transform="translate(57.91 475.76)"><tspan class="cls-14">L</tspan><tspan x="25.59" y="0">uis </tspan><tspan class="cls-15" x="103.6" y="0">f</tspan><tspan x="119.22" y="0">e</tspan><tspan class="cls-16" x="147.28" y="0">r</tspan><tspan x="165.81" y="0">nando</tspan></text><text class="cls-2" transform="translate(591.48 431.6)"><tspan class="cls-3">M</tspan><tspan x="27.79" y="0">ASTER </tspan><tspan class="cls-4" x="127.33" y="0">C</tspan><tspan x="147.77" y="0">ARD</tspan></text><circle class="cls-5" cx="644" cy="316" r="60.5"/><circle class="cls-6" cx="724" cy="316" r="60.5"/></g></svg>