<svg id="LINE" enable-background="new 0 0 36 36" height="512" viewBox="0 0 36 36" width="512" xmlns="http://www.w3.org/2000/svg"><path d="m13.411 34.999c6.298-2.859 12.105-1.559 15.14-2.936 3.035-1.378 8.617-6.016 2.28-19.978s-15.841-12.12-19.18-10.605c-15.632 7.095-9.395 38.582 1.76 33.519z" fill="#efefef"/><g fill="#a4afc1"><path d="m5.75 33.506c-.827 0-1.5-.673-1.5-1.5s.673-1.5 1.5-1.5 1.5.673 1.5 1.5-.673 1.5-1.5 1.5zm0-2c-.275 0-.5.224-.5.5s.225.5.5.5.5-.224.5-.5-.225-.5-.5-.5z"/><path d="m25.043 2.108h2v1h-2z" transform="matrix(.707 -.707 .707 .707 5.784 19.179)"/><path d="m20.978 6.174h2v1h-2z" transform="matrix(.707 -.707 .707 .707 1.718 17.495)"/><path d="m21.478 1.431h1v2h-1z" transform="matrix(.707 -.707 .707 .707 4.718 16.253)"/><path d="m25.543 5.497h1v2h-1z" transform="matrix(.707 -.707 .707 .707 3.034 20.318)"/></g><circle cx="18" cy="8" fill="#f3f3f1" r="1.25"/><circle cx="25.071" cy="10.929" fill="#2fdf84" r="1.25"/><path d="m21.889 14.111 2.121-2.121z" fill="#2fdf84"/><circle cx="28" cy="18" fill="#2fdf84" r="1.25"/><path d="m23.5 18h3z" fill="#2fdf84"/><circle cx="25.071" cy="25.071" fill="#f3f3f1" r="1.25"/><path d="m21.889 21.889 2.121 2.121z" fill="#2fdf84"/><circle cx="18" cy="28" fill="#2fdf84" r="1.25"/><path d="m18 23.5v3z" fill="#2fdf84"/><circle cx="10.929" cy="25.071" fill="#f3f3f1" r="1.25"/><path d="m14.111 21.889-2.121 2.121z" fill="#2fdf84"/><circle cx="8" cy="18" fill="#2fdf84" r="1.25"/><path d="m12.5 18h-3z" fill="#2fdf84"/><circle cx="10.929" cy="10.929" fill="#f3f3f1" r="1.25"/><path d="m14.111 14.111-2.121-2.121z" fill="#2fdf84"/><circle cx="18" cy="18" fill="#2fdf84" r="5.25"/><path d="m18 20.5v.75z" fill="#2fdf84"/><path d="m18 14.75v.75z" fill="#2fdf84"/><path d="m14.75 18c0-2.557 1.83-4.682 4.25-5.149-.324-.063-.657-.101-1-.101-2.899 0-5.25 2.35-5.25 5.25 0 2.899 2.351 5.25 5.25 5.25.343 0 .676-.038 1-.101-2.42-.467-4.25-2.592-4.25-5.149z" fill="#00b871"/><path d="m18 10c-1.103 0-2-.897-2-2s.897-2 2-2 2 .897 2 2-.897 2-2 2zm0-2.5c-.275 0-.5.224-.5.5s.225.5.5.5.5-.224.5-.5-.225-.5-.5-.5z"/><path d="m17.25 9.5h1.5v3h-1.5z"/><circle cx="25.071" cy="10.929" fill="#f3f3f1" r="1.25"/><path d="m25.071 12.928c-.512 0-1.024-.195-1.414-.584-.78-.78-.78-2.049 0-2.829.779-.779 2.049-.779 2.828 0 .78.78.78 2.049 0 2.829-.389.389-.902.584-1.414.584zm0-2.499c-.128 0-.256.049-.354.146-.195.195-.195.512 0 .707.195.194.512.195.707 0s.195-.512 0-.707c-.097-.097-.225-.146-.353-.146z"/><path d="m21.45 12.3h3v1.5h-3z" transform="matrix(.707 -.707 .707 .707 -2.506 20.05)"/><circle cx="28" cy="18" fill="#f3f3f1" r="1.25"/><path d="m28 20c-1.103 0-2-.897-2-2s.897-2 2-2 2 .897 2 2-.897 2-2 2zm0-2.5c-.275 0-.5.224-.5.5s.225.5.5.5.5-.224.5-.5-.225-.5-.5-.5z"/><path d="m23.5 17.25h3v1.5h-3z"/><path d="m25.071 27.07c-.512 0-1.024-.195-1.414-.584-.78-.78-.78-2.049 0-2.829.779-.779 2.049-.779 2.828 0 .78.78.78 2.049 0 2.829-.389.389-.902.584-1.414.584zm-.353-1.646c.195.195.512.195.707 0s.195-.512 0-.707c-.195-.194-.512-.195-.707 0-.196.195-.196.512 0 .707z"/><path d="m22.2 21.45h1.5v3h-1.5z" transform="matrix(.707 -.707 .707 .707 -9.506 22.957)"/><circle cx="18" cy="28" fill="#f3f3f1" r="1.25"/><path d="m18 30c-1.103 0-2-.897-2-2s.897-2 2-2 2 .897 2 2-.897 2-2 2zm0-2.5c-.275 0-.5.224-.5.5s.225.5.5.5.5-.224.5-.5-.225-.5-.5-.5z"/><path d="m17.25 23.5h1.5v3h-1.5z"/><path d="m10.929 27.07c-.512 0-1.024-.195-1.414-.584-.78-.78-.78-2.049 0-2.829.779-.778 2.049-.778 2.828 0 .78.78.78 2.049 0 2.829-.39.389-.903.584-1.414.584zm-.354-2.352c-.195.195-.195.512 0 .707.195.194.512.195.707 0s.195-.512 0-.707-.511-.196-.707 0z"/><path d="m11.55 22.2h3v1.5h-3z" transform="matrix(.707 -.707 .707 .707 -12.406 15.95)"/><circle cx="8" cy="18" fill="#f3f3f1" r="1.25"/><path d="m8 20c-1.103 0-2-.897-2-2s.897-2 2-2 2 .897 2 2-.897 2-2 2zm0-2.5c-.275 0-.5.224-.5.5s.225.5.5.5.5-.224.5-.5-.225-.5-.5-.5z"/><path d="m9.5 17.25h3v1.5h-3z"/><path d="m10.929 12.928c-.512 0-1.024-.195-1.414-.584-.78-.78-.78-2.049 0-2.829.779-.779 2.049-.779 2.828 0 .78.78.78 2.049 0 2.829-.39.389-.903.584-1.414.584zm0-2.499c-.128 0-.256.049-.354.146-.195.195-.195.512 0 .707.195.194.512.195.707 0 .195-.194.195-.512 0-.707-.097-.097-.225-.146-.353-.146z"/><path d="m12.3 11.55h1.5v3h-1.5z" transform="matrix(.707 -.707 .707 .707 -5.406 13.055)"/><path d="m18 24c-3.309 0-6-2.691-6-6s2.691-6 6-6 6 2.691 6 6-2.691 6-6 6zm0-10.5c-2.481 0-4.5 2.019-4.5 4.5s2.019 4.5 4.5 4.5 4.5-2.019 4.5-4.5-2.019-4.5-4.5-4.5z"/><path d="m17.25 19.75h1.5v2.25h-1.5z"/><path d="m17.25 14h1.5v2.25h-1.5z"/><path d="m18.125 21h-2.125v-1.5h2.125c.207 0 .375-.168.375-.375s-.168-.375-.375-.375h-.25c-1.034 0-1.875-.841-1.875-1.875s.841-1.875 1.875-1.875h2.125v1.5h-2.125c-.207 0-.375.168-.375.375s.168.375.375.375h.25c1.034 0 1.875.841 1.875 1.875s-.841 1.875-1.875 1.875z"/></svg>