<svg id="Layer_1" height="512" viewBox="0 0 512 512" width="512" xmlns="http://www.w3.org/2000/svg" data-name="Layer 1"><path d="m256 101.35v168.57.48l-109.63-11.15 109.63-159.07.55.79z" fill="#d8ff33"/><path d="m365.63 259.25-109.63 11.15v-.48-168.57l.55-.38z" fill="#9be147"/><path d="m256 270.4 166.26 141.42 72.99-165.75z" fill="#50dd5a"/><path d="m422.26 411.82h-332.52l166.26-141.42z" fill="#42b254"/><path d="m16.75 246.07 72.99 165.75 166.26-141.42z" fill="#50dd5a"/><path d="m256 101.35.55-.38-.55-.79-109.63 159.07 28.849 2.934 80.781-117.211z" fill="#f7ffae"/><path d="m16.75 246.07 72.99 165.75 21.825-18.564-63.409-143.992z" fill="#83ff89"/><g fill="#284268"><path d="m494.643 240.1-126.089 12.823-107.079-155.38-.55-.79a5.9 5.9 0 0 0 -4.939-2.573 6 6 0 0 0 -4.926 2.595l-107.617 156.148-126.086-12.823a6 6 0 0 0 -6.1 8.387l72.99 165.75a6 6 0 0 0 5.491 3.582h332.522a6 6 0 0 0 5.491-3.582l72.99-165.75a6 6 0 0 0 -6.1-8.387zm-232.643-120.648 92.937 134.856-92.937 9.451zm-12 .008v144.3l-92.934-9.451zm-143.945 286.36 57.774-49.143a6 6 0 1 0 -7.775-9.14l-64.068 54.5-65.592-148.955 215 21.864-62.447 53.116a6 6 0 0 0 7.776 9.141l69.277-58.926 149.945 127.543zm313.959-3.788-149.409-127.086 215-21.864z"/><path d="m67.861 290.711-4.259-9.67a6 6 0 0 0 -10.983 4.838l4.26 9.67a6 6 0 1 0 10.982-4.838z"/><path d="m74.831 306.542a6 6 0 1 0 -10.982 4.836l25.751 58.471a6 6 0 0 0 10.982-4.837z"/></g></svg>