<svg id="Capa_1" enable-background="new 0 0 511.999 511.999" height="512" viewBox="0 0 511.999 511.999" width="512" xmlns="http://www.w3.org/2000/svg"><g><g><path d="m303.228 481.957v-2.657l-16.75-15.468v-76.75l-4.141-2.471c-5.065 2.062-10.6 3.204-16.399 3.204-16.954 0-30.28-8.206-37.883-19.94l-51.924 20.279c-10.237 4.213-23.944 17.469-23.944 37.139v28.166h41.095v51.373h96.118-.001 5.828l-18.375-12.766v-10.109z" fill="#dd636e"/><path d="m170.311 425.665c0-20.652 11.438-35.218 19.237-42.752l-13.418 5.24c-10.237 4.213-23.944 17.469-23.944 37.139v28.166h18.125c0-10.275 0-20.027 0-27.793z" fill="#da4a54"/><path d="m152.186 452.459v44.43c0 4.387 3.556 7.943 7.943 7.943h33.152v-52.373z" fill="#ffcebe"/><path d="m170.311 452.459h-18.125v44.43c0 4.387 3.556 7.943 7.943 7.943h10.182c0-13.619 0-33.923 0-52.373z" fill="#ffb1a0"/><path d="m291.968 363.877c-1.328-.783-2.176-2.216-2.18-3.8l-.005-16.033c-6.965 4.18-15.108 6.59-23.805 6.59-9.597 0-18.099-2.479-25.179-6.671v16.087c0 1.824-.877 2.898-1.886 3.583l-11.383 4.446c7.509 12.162 21.07 20.735 38.409 20.735 5.799 0 11.333-1.141 16.399-3.204l1.974-1.362 2-13.083 6.167-6.083z" fill="#ffcebe"/><path d="m265.306 350.624c-9.321-.113-17.594-2.566-24.508-6.66v16.087c0 1.824-.877 2.898-1.886 3.583l-11.383 4.446c7.416 12.012 20.744 20.508 37.777 20.715z" fill="#ffb1a0"/><path d="m415.692 362.508h-117.24c-8.901 0-16.116 7.215-16.116 16.116v84.56c0 8.901 7.215 17.116 16.116 17.116h117.24c8.901 0 16.116-8.215 16.116-17.116v-84.56c0-8.9-7.215-16.116-16.116-16.116z" fill="#d3effb"/><path d="m317.387 463.185v-84.56c0-8.901 7.216-16.116 16.116-16.116h-35.05c-8.901 0-16.116 7.216-16.116 16.116v84.56c0 8.901 7.215 17.116 16.116 17.116h35.05c-8.901-.001-16.116-8.216-16.116-17.116z" fill="#b1e4f9"/><path d="m437.178 479.3h-160.211c-3.617 0-6.549 2.932-6.549 6.549 0 10.483 8.499 18.982 18.982 18.982h135.345c10.483 0 18.982-8.498 18.982-18.982 0-3.616-2.932-6.549-6.549-6.549z" fill="#e4f6ff"/><path d="m305.468 485.85c0-3.617 2.932-6.549 6.549-6.549h-35.05c-3.617 0-6.549 2.932-6.549 6.549 0 10.483 8.499 18.982 18.982 18.982h35.05c-10.483 0-18.982-8.499-18.982-18.982z" fill="#d3effb"/><path d="m296.967 259.737c0-.854-1.142-1.147-1.545-.395-5.191 9.709-15.422 16.318-27.202 16.318h-49.988v30.573c0 24.251 19.002 46.401 47.745 46.401 25.586 0 46.402-20.816 46.402-46.401v-30.599c-8.522-.274-15.412-7.312-15.412-15.897z" fill="#ffdecf"/><g><path d="m245.233 306.234v-30.574h-27v30.573c0 24.251 19.002 46.401 47.744 46.401 4.536 0 8.917-.666 13.063-1.885-20.782-5.825-33.807-24.444-33.807-44.515z" fill="#ffcebe"/></g><path d="m306.764 220.186c-4.172.321-8-2.302-8.803-6.409-1.352-6.916-4.776-13.778-18.151-13.778h-46.403c-17.03 0-30.836 13.806-30.836 30.836v33.842c0 7.171 5.813 12.984 12.984 12.984h52.665c11.78 0 22.01-6.609 27.201-16.318.402-.753 1.545-.459 1.545.395 0 8.758 7.165 15.923 15.923 15.923 4.591 0 8.347-3.756 8.347-8.347v-35.315c.001-8.321-7.258-14.368-14.472-13.813z" fill="#b06c6c"/><g><path d="m229.572 264.677v-33.842c0-17.03 13.806-30.836 30.836-30.836h-27c-17.03 0-30.836 13.806-30.836 30.836v33.842c0 7.171 5.813 12.984 12.984 12.984h27c-7.171-.001-12.984-5.814-12.984-12.984z" fill="#9d5e5e"/></g><path d="m74.043 96.693 1.83-1.36h63l2.876 1.361c10.447-9.319 17.031-22.876 17.031-37.977 0-28.102-22.781-50.884-50.884-50.884s-50.883 22.781-50.883 50.883c0 15.101 6.584 28.658 17.03 37.977z" fill="#3f6d8e"/><g><path d="m79.013 58.716c0-24.324 17.072-44.648 39.883-49.678-3.544-.781-7.221-1.206-11-1.206-28.102 0-50.883 22.781-50.883 50.884 0 15.1 6.584 28.657 17.03 37.976l1.83-1.36h18.722c-9.598-9.254-15.582-22.23-15.582-36.616z" fill="#365e7d"/></g><circle cx="107.897" cy="55.193" fill="#ffdecf" r="19.61"/><path d="m113.641 69.06c-7.658-7.658-7.658-20.075 0-27.733 1.24-1.24 2.613-2.257 4.062-3.095-7.501-4.341-17.253-3.324-23.672 3.095-7.658 7.658-7.658 20.075 0 27.733 6.419 6.419 16.171 7.436 23.672 3.095-1.449-.838-2.823-1.856-4.062-3.095z" fill="#ffcebe"/><path d="m122.181 74.804c-6.054 0-23.629 0-28.568 0-10.81 0-19.574 8.764-19.574 19.574v2.318c8.995 8.024 20.856 12.904 33.858 12.904s24.863-4.879 33.858-12.904v-2.318c0-10.811-8.764-19.574-19.574-19.574z" fill="#b3e59f"/><path d="m100.397 93.378c0-8.66 5.63-15.994 13.425-18.574-7.483 0-16.821 0-20.21 0-10.81 0-19.574 8.764-19.574 19.574v2.318c7.231 6.451 16.318 10.864 26.358 12.348v-15.666z" fill="#95d6a4"/><path d="m370.163 96.693 1.83-1.36h63l2.876 1.361c10.447-9.319 17.031-22.876 17.031-37.977 0-28.102-22.781-50.884-50.884-50.884s-50.883 22.781-50.883 50.884c0 15.1 6.583 28.657 17.03 37.976z" fill="#3f6d8e"/><g><path d="m375.133 58.716c0-24.324 17.072-44.648 39.883-49.678-3.544-.781-7.221-1.206-11-1.206-28.102 0-50.883 22.781-50.883 50.884 0 15.1 6.584 28.657 17.03 37.976l1.83-1.36h18.722c-9.599-9.254-15.582-22.23-15.582-36.616z" fill="#365e7d"/></g><circle cx="404.016" cy="55.193" fill="#ffdecf" r="19.61"/><path d="m409.76 69.06c-7.658-7.658-7.658-20.075 0-27.733 1.24-1.24 2.613-2.257 4.062-3.095-7.501-4.341-17.253-3.324-23.672 3.095-7.658 7.658-7.658 20.075 0 27.733 6.419 6.419 16.171 7.436 23.672 3.095-1.449-.838-2.823-1.856-4.062-3.095z" fill="#ffcebe"/><path d="m418.3 74.804c-6.054 0-23.629 0-28.568 0-10.81 0-19.574 8.764-19.574 19.574v2.318c8.995 8.024 20.856 12.904 33.858 12.904s24.863-4.879 33.858-12.904v-2.318c0-10.811-8.763-19.574-19.574-19.574z" fill="#ffaa5b"/><path d="m396.516 93.378c0-8.66 5.63-15.994 13.425-18.574-7.483 0-16.821 0-20.21 0-10.81 0-19.574 8.764-19.574 19.574v2.318c7.231 6.451 16.318 10.864 26.358 12.348v-15.666z" fill="#ff9838"/><path d="m222.103 96.693 1.83-1.36h63l2.876 1.361c10.447-9.319 17.031-22.876 17.031-37.977 0-28.102-22.781-50.884-50.884-50.884s-50.883 22.781-50.883 50.884c0 15.1 6.584 28.657 17.03 37.976z" fill="#3f6d8e"/><g><path d="m227.073 58.716c0-24.324 17.072-44.648 39.883-49.678-3.544-.781-7.221-1.206-11-1.206-28.102 0-50.883 22.781-50.883 50.884 0 15.1 6.584 28.657 17.03 37.976l1.83-1.36h18.722c-9.598-9.254-15.582-22.23-15.582-36.616z" fill="#365e7d"/></g><circle cx="255.956" cy="55.193" fill="#ffdecf" r="19.61"/><path d="m261.7 69.06c-7.658-7.658-7.658-20.075 0-27.733 1.24-1.24 2.613-2.257 4.062-3.095-7.501-4.341-17.253-3.324-23.672 3.095-7.658 7.658-7.658 20.075 0 27.733 6.419 6.419 16.171 7.436 23.672 3.095-1.449-.838-2.822-1.856-4.062-3.095z" fill="#ffcebe"/><path d="m270.24 74.804c-6.054 0-23.629 0-28.568 0-10.81 0-19.574 8.764-19.574 19.574v2.318c8.995 8.024 20.856 12.904 33.858 12.904s24.863-4.879 33.858-12.904v-2.318c0-10.811-8.763-19.574-19.574-19.574z" fill="#90d8f9"/><path d="m248.456 93.378c0-8.66 5.63-15.994 13.425-18.574-7.483 0-16.821 0-20.21 0-10.81 0-19.574 8.764-19.574 19.574v2.318c7.231 6.451 16.318 10.864 26.358 12.348v-15.666z" fill="#75cef9"/></g><g><path d="m451.27 485.517c0-7.583-6.043-13.766-13.563-14.025 1.057-2.678 1.644-5.591 1.644-8.64v-24.78c0-4.142-3.357-7.5-7.5-7.5s-7.5 3.358-7.5 7.5v24.78c0 4.75-3.865 8.616-8.615 8.616h-117.24c-4.752 0-8.616-3.866-8.616-8.616 0-17.73 0-66.197 0-84.561 0-4.745 3.886-8.616 8.616-8.616h117.24c4.75 0 8.615 3.865 8.615 8.616v24.78c0 4.142 3.357 7.5 7.5 7.5s7.5-3.358 7.5-7.5v-24.78c0-13.022-10.594-23.616-23.615-23.616h-117.24c-.391 0-.779.011-1.166.03l-.001-4.969c13.664-9.787 22.594-25.783 22.594-43.834v-22.719c5.238-2.589 8.857-7.973 8.857-14.2v-35.315c0-12.821-11.093-22.168-22.55-21.291-.381.028-.814-.105-.866-.369-2.572-13.165-11.155-19.84-25.511-19.84h-6.353c-4.143 0-7.5 3.358-7.5 7.5s3.357 7.5 7.5 7.5h6.354c8.636 0 9.879 3.056 10.79 7.72 1.51 7.713 8.7 13.061 16.738 12.445 2.871-.232 6.398 2.408 6.398 6.334v35.315c0 2.258-8.525.163-9.228-6.744-.098-1 .269-5.139-3.794-7.792-4.066-2.669-9.589-1.31-11.907 3.028-4.056 7.587-11.925 12.354-20.588 12.354-11.419 0-43.046 0-52.665 0-3.023 0-5.483-2.46-5.483-5.483v-33.842c0-12.868 10.469-23.336 23.336-23.336h5.049c4.143 0 7.5-3.358 7.5-7.5s-3.357-7.5-7.5-7.5h-5.049c-21.139 0-38.336 17.197-38.336 38.336v33.842c0 9.631 6.69 17.709 15.661 19.886v21.67c0 16.558 8.071 33.472 22.565 43.83v7.711l-59.896 23.394c-.042.016-.084.033-.126.05-13.77 5.667-28.59 21.876-28.59 44.075v71.595c0 8.516 6.928 15.443 15.443 15.443h264.616c14.602 0 26.482-11.88 26.482-26.482zm-225.494-179.616v-21.073h42.487c9.519 0 18.706-3.596 25.618-9.812 2.728 3.807 6.569 6.759 11.041 8.392v22.493c0 21.504-17.534 38.901-38.902 38.901-25.067 0-40.244-19.652-40.244-38.901zm-39.952 191.098h-25.651c-.244 0-.443-.199-.443-.443v-36.93h26.095v37.373zm79.739 0h-64.739c0-7.746 0-64.137 0-72.293 0-4.142-3.357-7.5-7.5-7.5s-7.5 3.358-7.5 7.5v19.92h-26.095v-19.666c0-16.293 11.485-26.959 19.242-30.18l45.875-17.917c9.77 12.221 24.435 19.118 41.134 19.118 3.007 0 5.977-.273 8.898-.789v67.66c0 2.827.513 5.731 1.631 8.625-11.093.39-17.356 12.218-10.946 25.522zm9.316-117.127c-2.893.738-5.871 1.11-8.898 1.11-10.251 0-19.402-3.549-26.174-9.961 1.63-.637 2.401-.863 3.359-1.513 5.654-3.836 5.176-9.285 5.176-12.334 10.46 3.277 22.871 3.634 33.988.1.001 2.267-.029 2.84.071 3.745-5.703 5.31-7.522 11.612-7.522 18.853zm149.91 117.127h-135.346c-6.012 0-10.96-4.665-11.443-10.531h158.231c-.484 5.888-5.432 10.531-11.442 10.531z"/><path d="m352.4 413.072c-4.143 0-7.5 3.358-7.5 7.5s3.357 7.5 7.5 7.5h9.432c4.143 0 7.5-3.358 7.5-7.5s-3.357-7.5-7.5-7.5z"/><path d="m107.94 116.767c32.186 0 58.384-26.172 58.384-58.383 0-32.193-26.191-58.384-58.384-58.384s-58.384 26.191-58.384 58.384c0 31.997 25.943 58.383 58.384 58.383zm0-15c-9.255 0-18.496-2.944-26.299-8.912.6-6.101 5.758-10.884 12.015-10.884h28.568c6.256 0 11.415 4.783 12.014 10.885-7.608 5.818-16.79 8.911-26.298 8.911zm-.001-59.012c10.759 0 16.17 13.062 8.563 20.668-4.732 4.733-12.393 4.734-17.126 0-7.603-7.603-2.197-20.668 8.563-20.668zm.001-27.755c23.922 0 43.384 19.462 43.384 43.384 0 7.928-2.148 15.36-5.877 21.762-3.2-5.326-8.178-9.465-14.108-11.592 10.531-18.006-2.469-40.804-23.399-40.804-20.913 0-33.944 22.777-23.399 40.804-5.93 2.127-10.908 6.265-14.108 11.591-3.729-6.402-5.876-13.833-5.876-21.761-.001-23.922 19.461-43.384 43.383-43.384z"/><path d="m256 116.767c32.15 0 58.384-26.149 58.384-58.383-.001-32.193-26.191-58.384-58.384-58.384s-58.384 26.191-58.384 58.384c0 31.997 25.946 58.383 58.384 58.383zm0-15c-9.37 0-18.581-3.009-26.299-8.912.6-6.101 5.758-10.884 12.015-10.884h28.568c6.256 0 11.415 4.783 12.015 10.884-7.845 6-17.109 8.912-26.299 8.912zm0-59.011c3.101 0 6.202 1.181 8.562 3.541h.001c2.287 2.287 3.547 5.329 3.547 8.563 0 6.692-5.416 12.111-12.11 12.111-3.235 0-6.276-1.26-8.563-3.547-7.607-7.606-2.197-20.668 8.563-20.668zm0-27.756c23.922 0 43.384 19.462 43.384 43.384 0 7.928-2.147 15.359-5.876 21.761-3.199-5.324-8.176-9.462-14.104-11.589 2.415-4.11 3.707-8.802 3.707-13.695 0-24.06-29.245-36.202-46.281-19.17-8.894 8.895-10.301 22.481-4.228 32.864-5.93 2.127-10.909 6.265-14.108 11.591-3.729-6.402-5.876-13.833-5.876-21.761-.002-23.923 19.46-43.385 43.382-43.385z"/><path d="m404.059 116.767c32.086 0 58.384-26.083 58.384-58.383 0-32.193-26.191-58.384-58.384-58.384s-58.384 26.191-58.384 58.384c0 32.056 26 58.383 58.384 58.383zm0-15c-9.204 0-18.464-2.92-26.299-8.912.6-6.101 5.758-10.884 12.015-10.884h28.568c6.256 0 11.415 4.783 12.015 10.884-7.815 5.977-17.069 8.912-26.299 8.912zm0-59.011c3.101 0 6.202 1.181 8.562 3.541h.001c2.287 2.287 3.547 5.329 3.547 8.563 0 3.235-1.26 6.276-3.548 8.563-2.287 2.288-5.328 3.547-8.562 3.547-3.235 0-6.276-1.26-8.563-3.547-7.607-7.605-2.197-20.667 8.563-20.667zm0-27.756c23.922 0 43.384 19.462 43.384 43.384 0 7.928-2.147 15.359-5.876 21.761-3.199-5.324-8.176-9.462-14.104-11.589 2.415-4.11 3.707-8.802 3.707-13.695 0-24.06-29.245-36.202-46.281-19.17-8.894 8.895-10.301 22.481-4.228 32.864-5.93 2.127-10.909 6.265-14.108 11.591-3.729-6.402-5.876-13.833-5.876-21.761-.002-23.923 19.46-43.385 43.382-43.385z"/><path d="m263.5 173.333v-37.333c0-4.142-3.357-7.5-7.5-7.5s-7.5 3.358-7.5 7.5v37.333c0 4.142 3.357 7.5 7.5 7.5s7.5-3.358 7.5-7.5z"/><path d="m296.522 173.333v-11.167h107.537c4.143 0 7.5-3.358 7.5-7.5v-18.666c0-4.142-3.357-7.5-7.5-7.5s-7.5 3.358-7.5 7.5v11.167h-107.537c-4.143 0-7.5 3.358-7.5 7.5v18.667c0 4.142 3.357 7.5 7.5 7.5s7.5-3.359 7.5-7.501z"/><path d="m107.94 128.5c-4.143 0-7.5 3.358-7.5 7.5v18.667c0 4.142 3.357 7.5 7.5 7.5h107.537v11.167c0 4.142 3.357 7.5 7.5 7.5s7.5-3.358 7.5-7.5v-18.667c0-4.142-3.357-7.5-7.5-7.5h-107.537v-11.167c0-4.143-3.357-7.5-7.5-7.5z"/></g></g></svg>