<svg height="512" viewBox="0 0 58 58" width="512" xmlns="http://www.w3.org/2000/svg"><g id="030---Space-Ship-Taking-Off" fill="none" transform="translate(-1)"><path id="Shape" d="m33.36 39c.9686161.0185624 1.811263-.6597685 2-1.61l1.13-5.64c-1.49.11-2.96-.81-4.49-.75 0 1.1045695-.8954305 2-2 2s-2-.8954305-2-2c-1.53 0-3 .88-4.45.77l1.13 5.64c.188737.9502315 1.0313839 1.6285624 2 1.61z" fill="#7f8c8d"/><path id="Shape" d="m30 43c6.43 0 8.93 5.88 1.21 14.48-.3152415.3314009-.752612.5190004-1.21.5190004s-.8947585-.1875995-1.21-.5190004c-7.72-8.6-5.21-14.48 1.21-14.48z" fill="#f29c1f"/><path id="Shape" d="m30 43c2.37 0 3.56 1.89 3.56 4.25 0 3.36-1.8 6.4-2.84 8-.1336692.2759923-.4133419.4512881-.72.4512881s-.5863308-.1752958-.72-.4512881c-1-1.65-2.84-4.69-2.84-8 0-2.36 1.18-4.25 3.56-4.25z" fill="#f0c419"/><g fill="#f3d55b"><path id="Shape" d="m41 45c-.31 0-.25 0-2.45-1.11-.3460386-.1440974-.5824323-.4696151-.6123817-.8432591s.1515756-.73266.4702434-.9300368c.3186678-.1973769.7209575-.1999648 1.0421383-.0067041l2 1c.4101627.2101126.6236218.6733224.51688 1.1216381-.1067419.4483157-.5060402.7656308-.96688.7683619z"/><path id="Shape" d="m43 41h-2c-.5522847 0-1-.4477153-1-1s.4477153-1 1-1h2c.5522847 0 1 .4477153 1 1s-.4477153 1-1 1z"/><path id="Shape" d="m19 45c-.4608398-.0027311-.8601381-.3200462-.96688-.7683619-.1067418-.4483157.1067173-.9115255.51688-1.1216381l2-1c.3211808-.1932607.7234705-.1906728 1.0421383.0067041.3186678.1973768.5001928.5563928.4702434.9300368s-.2663431.6991617-.6123817.8432591c-2.2 1.11-2.13 1.11-2.45 1.11z"/><path id="Shape" d="m19 41h-2c-.5522847 0-1-.4477153-1-1s.4477153-1 1-1h2c.5522847 0 1 .4477153 1 1s-.4477153 1-1 1z"/></g><path id="Shape" d="m57.75 26.77c-1.5448728.7111954-3.1310612 1.328974-4.75 1.85-.1569424-.7285946-.7059972-1.3094822-1.4246004-1.5071952s-1.4875326.0205508-1.9950963.5663164-.6695526 1.3284859-.4203033 2.0308788c-1.86.47-3.9.9-6.13 1.26-.0061039-.7761709-.460745-1.4787162-1.1662976-1.80225-.7055525-.3235337-1.5345835-.2096211-2.1267255.2922219-.592142.5018429-.8404456 1.300976-.6369769 2.0500281-2.23.24-4.59.41-7.07.47 0-1.1045695-.8954305-2-2-2s-2 .8954305-2 2c-2.48-.06-4.84-.23-7.07-.47.1392867-.7302163-.137924-1.4774381-.719764-1.9401246-.5818399-.4626865-1.3722972-.5644878-2.0523833-.2643221-.6800861.3001658-1.1375771.9527669-1.1878527 1.6944467-2.23-.36-4.27-.79-6.13-1.26.3092795-1.068671-.306329-2.1857205-1.375-2.495-1.06867099-.3092795-2.18572054.306329-2.495 1.375-1.62911747-.5198934-3.22535558-1.1376843-4.78-1.85-.69988028-.3400726-1.16675235-1.0259778-1.22643198-1.8018129-.05967962-.7758351.29679668-1.5250749.93643198-1.9681871 2.86-2 6.07-3 12.07-3.65v.84c.0011534 1.6977047 1.1340195 3.1863808 2.77 3.64 4.3037265 1.2657635 8.7474268 1.9946244 13.23 2.17 4.4825732-.1753756 8.9262735-.9042365 13.23-2.17 1.6359805-.4536192 2.7688466-1.9422953 2.77-3.64v-.84c6 .65 9.21 1.65 12.07 3.65.6373033.4479506.9886882 1.2007168.9228045 1.9769091-.0658837.7761924-.539118 1.4589644-1.2428045 1.7930909z" fill="#bdc3c7"/><path id="Shape" d="m30 0c-14 0-16 8-16 13v7.19c.0011534 1.6977047 1.1340195 3.1863808 2.77 3.64 4.3037265 1.2657635 8.7474268 1.9946244 13.23 2.17 4.4825732-.1753756 8.9262735-.9042365 13.23-2.17 1.6359805-.4536192 2.7688466-1.9422953 2.77-3.64v-7.19c0-7.55-4.48-13-16-13z" fill="#46b29d"/><path id="Shape" d="m40.71 2.47c-8 1.38-25.11 5.94-26.15 19.69-.3732711-.5997553-.5675516-1.2936143-.56-2v-7.16c0-5 2-13 16-13 4.9 0 8.33 1 10.71 2.47z" fill="#65ddb9"/><path id="Shape" d="m30 30c-1.1045695 0-2 .8954305-2 2s.8954305 2 2 2 2-.8954305 2-2-.8954305-2-2-2z" fill="#7f8c8d"/><path id="Shape" d="m19 29c-1.1045695 0-2 .8954305-2 2s.8954305 2 2 2 2-.8954305 2-2-.8954305-2-2-2z" fill="#7d6599"/><path id="Shape" d="m9 27c-1.1045695 0-2 .8954305-2 2s.8954305 2 2 2 2-.8954305 2-2-.8954305-2-2-2z" fill="#ff5364"/><path id="Shape" d="m30 30c-1.1045695 0-2 .8954305-2 2s.8954305 2 2 2 2-.8954305 2-2-.8954305-2-2-2z" fill="#7f8c8d"/><path id="Shape" d="m30 30c1.1045695 0 2 .8954305 2 2s-.8954305 2-2 2-2-.8954305-2-2 .8954305-2 2-2z" fill="#7f8c8d"/><path id="Shape" d="m41 29c1.1045695 0 2 .8954305 2 2s-.8954305 2-2 2-2-.8954305-2-2 .8954305-2 2-2z" fill="#7d6599"/><path id="Shape" d="m51 27c1.1045695 0 2 .8954305 2 2s-.8954305 2-2 2-2-.8954305-2-2 .8954305-2 2-2z" fill="#ff5364"/><path id="Shape" d="m30 30c1.1045695 0 2 .8954305 2 2s-.8954305 2-2 2-2-.8954305-2-2 .8954305-2 2-2z" fill="#ff5364"/><path id="Shape" d="m30 7.35c.1754288-.92004743-.1190855-1.86702004-.7853796-2.52528649s-1.6167669-.94128108-2.5346204-.75471351c-2.7208261.49887503-5.0294184 2.28905964-6.19 4.8-1.99 4.13 2.9 4.13 4.85 4.13 2.29 0 3.98-1.88 4.66-5.65z" fill="#fff"/><circle id="Oval" cx="21" cy="18" fill="#fff" r="2"/><path id="Shape" d="m58.41 23.31c-2.68 2.77-14.31 4.86-28.24 4.86h-.17c-14.16 0-25.89-2.19-28.22-5l.15-.17c2.86-2 6.07-3 12.07-3.65v.84c.0011534 1.6977047 1.1340195 3.1863808 2.77 3.64 4.3037265 1.2657635 8.7474268 1.9946244 13.23 2.17 4.4825732-.1753756 8.9262735-.9042365 13.23-2.17 1.6359805-.4536192 2.7688466-1.9422953 2.77-3.64v-.84c6 .65 9.21 1.65 12.07 3.65.126858.087448.2412387.1917363.34.31z" fill="#95a5a5"/></g></svg>