<?xml version="1.0" encoding="iso-8859-1"?>
<!-- Generator: Adobe Illustrator 19.0.0, SVG Export Plug-In . SVG Version: 6.00 Build 0)  -->
<svg version="1.1" id="Capa_1" xmlns="http://www.w3.org/2000/svg" xmlns:xlink="http://www.w3.org/1999/xlink" x="0px" y="0px"
	 viewBox="0 0 512.002 512.002" style="enable-background:new 0 0 512.002 512.002;" xml:space="preserve">
<g>
	<g>
		<path d="M256.001,239.874c-21.871,0-39.664,17.793-39.664,39.664c0,21.871,17.793,39.664,39.664,39.664
			c21.871,0,39.664-17.793,39.664-39.664C295.665,257.667,277.872,239.874,256.001,239.874z M256.001,299.203
			c-10.843,0-19.664-8.821-19.664-19.664c0-10.843,8.821-19.664,19.664-19.664c10.842,0,19.664,8.821,19.664,19.664
			C275.665,290.382,266.844,299.203,256.001,299.203z"/>
	</g>
</g>
<g>
	<g>
		<path d="M511.512,197.684c-1.291-3.973-4.916-6.725-9.09-6.901l-151.723-6.395c-2.658-0.113-5.264,0.845-7.22,2.658
			c-1.955,1.813-3.106,4.332-3.195,6.998c-0.139,4.115-1.498,8.061-3.931,11.41c-3.239,4.458-8.021,7.388-13.464,8.25
			c-5.444,0.86-10.895-0.448-15.354-3.687c-4.459-3.239-7.389-8.02-8.25-13.463c-0.862-5.443,0.448-10.896,3.686-15.354
			c2.41-3.317,5.708-5.815,9.536-7.225c2.495-0.918,4.521-2.792,5.631-5.208c1.11-2.415,1.213-5.173,0.286-7.665l-13.413-36.039
			c-1.927-5.177-7.689-7.81-12.86-5.884c-5.176,1.926-7.811,7.684-5.884,12.86l10.352,27.812c-3.77,2.595-7.091,5.826-9.827,9.592
			c-6.38,8.78-8.958,19.519-7.26,30.238c1.697,10.719,7.468,20.136,16.248,26.515c8.78,6.38,19.524,8.958,30.238,7.26
			c10.72-1.699,20.136-7.469,26.515-16.249c2.772-3.814,4.835-8.024,6.135-12.468l116.066,4.892l-91.243,72.354
			c-3.578-2.703-7.6-4.804-11.929-6.211c-21.308-6.92-44.273,4.78-51.197,26.087c-6.923,21.307,4.779,44.274,26.086,51.197
			c4.42,1.436,8.999,2.097,13.568,1.984l31.166,111.725l-96.771-64.261c1.462-4.234,2.217-8.704,2.217-13.251
			c0-22.404-18.227-40.631-40.631-40.631s-40.631,18.227-40.631,40.631c0,4.547,0.755,9.017,2.217,13.251l-17.833,11.842
			c-4.601,3.055-5.854,9.261-2.799,13.862s9.26,5.854,13.863,2.799l25.085-16.658c4.581-3.042,5.846-9.214,2.831-13.813
			c-2.201-3.357-3.364-7.259-3.364-11.284c0-11.376,9.255-20.631,20.631-20.631c11.376,0,20.631,9.255,20.631,20.631
			c0,4.025-1.163,7.927-3.364,11.284c-3.015,4.599-1.75,10.771,2.831,13.813l126.407,83.942c1.678,1.114,3.606,1.669,5.532,1.669
			c2.065,0,4.129-0.64,5.877-1.907c3.38-2.455,4.877-6.753,3.754-10.777l-40.742-146.057c-0.713-2.559-2.417-4.73-4.733-6.031
			c-2.316-1.303-5.058-1.63-7.612-0.907c-3.924,1.107-8.054,1.023-11.949-0.243c-10.818-3.515-16.761-15.177-13.245-25.996
			c1.703-5.241,5.345-9.506,10.255-12.007c4.91-2.503,10.499-2.942,15.741-1.239c3.831,1.244,7.183,3.558,9.697,6.692
			c3.443,4.292,9.706,4.996,14.014,1.579l119.12-94.459C511.488,206.014,512.803,201.657,511.512,197.684z"/>
	</g>
</g>
<g>
	<g>
		<path d="M182.67,435.321c-1.86-1.86-4.44-2.93-7.07-2.93c-2.639,0-5.21,1.07-7.07,2.93c-1.869,1.86-2.93,4.44-2.93,7.07
			s1.061,5.21,2.93,7.07c1.86,1.86,4.43,2.93,7.07,2.93c2.63,0,5.21-1.07,7.07-2.93c1.86-1.86,2.93-4.44,2.93-7.07
			S184.529,437.181,182.67,435.321z"/>
	</g>
</g>
<g>
	<g>
		<path d="M280.153,58.263l-14.779-39.711c-1.457-3.915-5.194-6.512-9.372-6.512c-4.178,0-7.915,2.596-9.372,6.512L193.578,161.1
			c-0.927,2.492-0.824,5.249,0.286,7.665c1.11,2.416,3.136,4.29,5.631,5.208c3.828,1.41,7.126,3.908,9.536,7.224
			c3.239,4.458,4.548,9.911,3.686,15.354c-0.861,5.443-3.792,10.224-8.25,13.463c-4.458,3.24-9.915,4.547-15.354,3.687
			c-5.443-0.862-10.225-3.792-13.464-8.25c-2.433-3.349-3.792-7.295-3.931-11.41c-0.089-2.665-1.24-5.185-3.195-6.998
			s-4.555-2.772-7.22-2.658L9.58,190.78c-4.174,0.176-7.799,2.928-9.09,6.901c-1.291,3.973,0.025,8.33,3.298,10.926l119.119,94.459
			c4.31,3.42,10.573,2.712,14.014-1.579c2.513-3.133,5.866-5.447,9.697-6.692c10.815-3.515,22.481,2.426,25.996,13.245
			c3.516,10.819-2.427,22.481-13.246,25.997c-3.894,1.264-8.026,1.349-11.948,0.243c-2.553-0.72-5.296-0.395-7.612,0.907
			c-2.316,1.302-4.019,3.472-4.733,6.031L94.333,487.275c-1.123,4.024,0.374,8.321,3.754,10.777c1.75,1.271,3.813,1.91,5.878,1.91
			c1.925,0,3.853-0.555,5.532-1.67l39.403-26.166c4.601-3.055,5.854-9.261,2.798-13.862c-3.055-4.601-9.261-5.854-13.862-2.799
			l-17.02,11.302l31.166-111.725c4.563,0.114,9.146-0.547,13.567-1.984c21.308-6.923,33.01-29.89,26.087-51.198
			c-3.353-10.321-10.526-18.719-20.196-23.646c-9.671-4.928-20.681-5.793-31.001-2.44c-4.329,1.407-8.351,3.508-11.929,6.211
			l-91.243-72.354l116.068-4.893c1.3,4.444,3.364,8.654,6.135,12.468c6.379,8.781,15.795,14.551,26.515,16.249
			c10.714,1.696,21.456-0.881,30.238-7.26c8.78-6.379,14.551-15.796,16.248-26.515c1.698-10.719-0.88-21.458-7.26-30.239
			c-2.736-3.765-6.056-6.996-9.827-9.591l40.618-109.139l5.407,14.528c1.927,5.176,7.684,7.808,12.86,5.884
			C279.445,69.197,282.08,63.439,280.153,58.263z"/>
	</g>
</g>
<g>
	<g>
		<path d="M293.027,92.86l-0.302-0.812c-1.924-5.178-7.685-7.812-12.858-5.888c-5.177,1.924-7.813,7.681-5.888,12.858l0.302,0.812
			c1.498,4.028,5.315,6.518,9.374,6.518c1.158,0,2.336-0.202,3.484-0.63C292.316,103.794,294.952,98.037,293.027,92.86z"/>
	</g>
</g>
<g>
</g>
<g>
</g>
<g>
</g>
<g>
</g>
<g>
</g>
<g>
</g>
<g>
</g>
<g>
</g>
<g>
</g>
<g>
</g>
<g>
</g>
<g>
</g>
<g>
</g>
<g>
</g>
<g>
</g>
</svg>
