<?xml version="1.0" standalone="no"?><svg xmlns="http://www.w3.org/2000/svg" viewBox="0 0 1440 320"><path fill="#4caf82" fill-opacity="1" d="M0,256L17.1,218.7C34.3,181,69,107,103,112C137.1,117,171,203,206,224C240,245,274,203,309,160C342.9,117,377,75,411,85.3C445.7,96,480,160,514,186.7C548.6,213,583,203,617,213.3C651.4,224,686,256,720,240C754.3,224,789,160,823,144C857.1,128,891,160,926,181.3C960,203,994,213,1029,234.7C1062.9,256,1097,288,1131,304C1165.7,320,1200,320,1234,293.3C1268.6,267,1303,213,1337,192C1371.4,171,1406,181,1423,186.7L1440,192L1440,0L1422.9,0C1405.7,0,1371,0,1337,0C1302.9,0,1269,0,1234,0C1200,0,1166,0,1131,0C1097.1,0,1063,0,1029,0C994.3,0,960,0,926,0C891.4,0,857,0,823,0C788.6,0,754,0,720,0C685.7,0,651,0,617,0C582.9,0,549,0,514,0C480,0,446,0,411,0C377.1,0,343,0,309,0C274.3,0,240,0,206,0C171.4,0,137,0,103,0C68.6,0,34,0,17,0L0,0Z"></path></svg>